<mxfile host="app.diagrams.net" modified="2023-05-04T06:26:19.807Z" agent="Mozilla/5.0 (Windows NT 10.0; Win64; x64) AppleWebKit/537.36 (KHTML, like Gecko) Chrome/112.0.0.0 Safari/537.36" version="21.2.7" etag="5xDx3RkFZMMUaLENZ3Ce" type="github">
  <diagram name="Страница 1" id="oZ2CzCN20LHDkG9rmF9P">
    <mxGraphModel>
      <root>
        <mxCell id="0" />
        <mxCell id="1" parent="0" />
      </root>
    </mxGraphModel>
  </diagram>
</mxfile>
